<svg xmlns="http://www.w3.org/2000/svg" xmlns:xlink="http://www.w3.org/1999/xlink" width="500" zoomAndPan="magnify" viewBox="0 0 375 374.999991" height="500" preserveAspectRatio="xMidYMid meet" version="1.0"><defs><g/><clipPath id="0c043eeb50"><path d="M 187.5 0 C 83.945312 0 0 83.945312 0 187.5 C 0 291.054688 83.945312 375 187.5 375 C 291.054688 375 375 291.054688 375 187.5 C 375 83.945312 291.054688 0 187.5 0 Z M 187.5 0 " clip-rule="nonzero"/></clipPath></defs><g clip-path="url(#0c043eeb50)"><rect x="-37.5" width="450" fill="#122620" y="-37.499999" height="449.999989" fill-opacity="1"/></g><g fill="#ffffff" fill-opacity="1"><g transform="translate(92.162497, 343.618753)"><g><path d="M 93.09375 16.640625 C 83.34375 16.640625 75.242188 15.550781 68.796875 13.375 C 62.359375 11.207031 57.265625 8.773438 53.515625 6.078125 C 49.765625 3.378906 47.140625 0.796875 45.640625 -1.671875 C 44.140625 -4.148438 43.390625 -5.765625 43.390625 -6.515625 C 43.390625 -9.210938 43.988281 -12.097656 45.1875 -15.171875 C 46.394531 -18.242188 47.894531 -21.09375 49.6875 -23.71875 C 51.488281 -26.34375 53.4375 -28.550781 55.53125 -30.34375 C 57.632812 -32.144531 59.507812 -33.046875 61.15625 -33.046875 C 63.257812 -33.046875 64.984375 -31.695312 66.328125 -29 C 66.628906 -28.707031 67.378906 -27.957031 68.578125 -26.75 C 69.773438 -25.550781 71.460938 -24.316406 73.640625 -23.046875 C 75.816406 -21.773438 78.515625 -20.613281 81.734375 -19.5625 C 84.953125 -18.507812 88.738281 -17.984375 93.09375 -17.984375 C 102.53125 -17.984375 110.25 -20.867188 116.25 -26.640625 C 122.25 -32.410156 125.25 -40.242188 125.25 -50.140625 C 125.25 -57.035156 123.632812 -63.179688 120.40625 -68.578125 C 117.1875 -73.972656 112.953125 -78.992188 107.703125 -83.640625 C 102.453125 -88.285156 96.453125 -92.816406 89.703125 -97.234375 C 82.960938 -101.660156 76.070312 -106.269531 69.03125 -111.0625 C 61.988281 -115.863281 55.09375 -121.035156 48.34375 -126.578125 C 41.59375 -132.128906 35.59375 -138.503906 30.34375 -145.703125 C 25.101562 -152.898438 20.867188 -161.03125 17.640625 -170.09375 C 14.421875 -179.164062 12.8125 -189.550781 12.8125 -201.25 C 12.8125 -211.289062 14.535156 -221.40625 17.984375 -231.59375 C 21.429688 -241.789062 26.191406 -251.5 32.265625 -260.71875 C 38.335938 -269.9375 45.492188 -278.554688 53.734375 -286.578125 C 61.984375 -294.597656 70.90625 -301.566406 80.5 -307.484375 C 90.09375 -313.410156 100.097656 -318.054688 110.515625 -321.421875 C 120.929688 -324.796875 131.382812 -326.484375 141.875 -326.484375 C 150.875 -326.484375 158.96875 -325.054688 166.15625 -322.203125 C 173.351562 -319.359375 179.425781 -315.347656 184.375 -310.171875 C 189.320312 -305.003906 193.144531 -298.785156 195.84375 -291.515625 C 198.539062 -284.253906 199.890625 -276.125 199.890625 -267.125 C 199.890625 -258.582031 198.390625 -250.1875 195.390625 -241.9375 C 192.398438 -233.695312 188.429688 -225.90625 183.484375 -218.5625 C 178.535156 -211.21875 172.945312 -204.429688 166.71875 -198.203125 C 160.5 -191.984375 154.128906 -186.585938 147.609375 -182.015625 C 141.085938 -177.441406 134.753906 -173.878906 128.609375 -171.328125 C 122.460938 -168.785156 117.066406 -167.515625 112.421875 -167.515625 C 108.378906 -167.515625 104.742188 -168.453125 101.515625 -170.328125 C 98.296875 -172.203125 95.597656 -174.523438 93.421875 -177.296875 C 91.253906 -180.066406 89.566406 -182.988281 88.359375 -186.0625 C 87.160156 -189.132812 86.5625 -191.875 86.5625 -194.28125 C 86.5625 -196.226562 86.820312 -197.5 87.34375 -198.09375 C 87.875 -198.695312 88.625 -198.957031 89.59375 -198.875 C 90.570312 -198.800781 91.8125 -198.578125 93.3125 -198.203125 C 94.8125 -197.828125 96.535156 -197.640625 98.484375 -197.640625 C 104.785156 -197.640625 111.753906 -199.8125 119.390625 -204.15625 C 127.035156 -208.507812 134.234375 -214.054688 140.984375 -220.796875 C 147.734375 -227.546875 153.390625 -234.96875 157.953125 -243.0625 C 162.523438 -251.15625 164.8125 -259.023438 164.8125 -266.671875 C 164.8125 -274.472656 162.898438 -280.617188 159.078125 -285.109375 C 155.253906 -289.609375 148.773438 -291.859375 139.640625 -291.859375 C 133.941406 -291.859375 127.753906 -290.769531 121.078125 -288.59375 C 114.410156 -286.425781 107.703125 -283.390625 100.953125 -279.484375 C 94.210938 -275.585938 87.691406 -270.863281 81.390625 -265.3125 C 75.097656 -259.769531 69.550781 -253.664062 64.75 -247 C 59.957031 -240.332031 56.097656 -233.132812 53.171875 -225.40625 C 50.253906 -217.6875 48.796875 -209.632812 48.796875 -201.25 C 48.796875 -192.40625 50.40625 -184.492188 53.625 -177.515625 C 56.851562 -170.546875 61.125 -164.210938 66.4375 -158.515625 C 71.757812 -152.828125 77.789062 -147.582031 84.53125 -142.78125 C 91.28125 -137.988281 98.175781 -133.226562 105.21875 -128.5 C 112.269531 -123.78125 119.164062 -118.910156 125.90625 -113.890625 C 132.65625 -108.867188 138.691406 -103.320312 144.015625 -97.25 C 149.335938 -91.175781 153.609375 -84.425781 156.828125 -77 C 160.054688 -69.582031 161.671875 -61.078125 161.671875 -51.484375 C 161.671875 -42.191406 159.910156 -33.382812 156.390625 -25.0625 C 152.867188 -16.75 148.03125 -9.519531 141.875 -3.375 C 135.726562 2.769531 128.457031 7.640625 120.0625 11.234375 C 111.675781 14.835938 102.6875 16.640625 93.09375 16.640625 Z M 93.09375 16.640625 "/></g></g></g></svg>